<?xml version="1.0" encoding="UTF-8" standalone="no"?>
<svg
   width="45"
   height="55.999535"
   viewBox="0 0 45 55.999535"
   version="1.1"
   xmlns:sodipodi="http://sodipodi.sourceforge.net/DTD/sodipodi-0.dtd"
   id="svg6"
   xmlns="http://www.w3.org/2000/svg"
   xmlns:svg="http://www.w3.org/2000/svg">
  <title id="title2">Mercantec</title>
  <path 
  d="M 0.211,50.604788 C 0.119,50.654788 0,50.596788 0,50.502788 V 5.4517882 c 0,-0.096 0.122,-0.154 0.213,-0.101 l 9.43,7.1639998 c 0.037696,0.02032 0.061705,0.05919 0.063,0.102 v 31.04 c 0,0.042 -0.024,0.08 -0.065,0.102 z m 22.639,5.317 c -0.054,0.125 -0.267,0.091 -0.267,-0.043 V 4.6017882 c 0,-0.13 0.203,-0.168 0.264,-0.05 l 3.56,7.0049998 c 0.0075,0.01523 0.01127,0.03202 0.011,0.049 v 35.97 c 9.6e-5,0.01481 -0.003,0.02947 -0.009,0.043 z m 11.286,-4.49 -4.49,-7.035 c -0.0118,-0.01778 -0.01806,-0.03866 -0.018,-0.06 V 8.5497882 c 0,-0.018 0.005,-0.035 0.013,-0.051 l 4.49,-8.42900004 c 0.063,-0.117 0.263,-0.078 0.263,0.051 V 51.373788 c 0,0.124 -0.189,0.167 -0.258,0.059 z m -21.252,1.558 c -0.085,0.082 -0.24,0.03 -0.24,-0.081 V 3.2127882 c 0,-0.11 0.155,-0.163 0.24,-0.081 l 6.742,7.6349998 c 0.02283,0.02076 0.03589,0.05015 0.036,0.081 v 34.425 c 0,0.03 -0.013,0.059 -0.036,0.081 l -6.742,7.635 z m 31.887,-2.55 -7.26,-6.777 c -0.02866,-0.02119 -0.04599,-0.05437 -0.047,-0.09 v -30.936 c 0,-0.035 0.017,-0.068 0.047,-0.091 l 7.26,-6.7399998 c 0.09,-0.068 0.229,-0.012 0.229,0.092 V 50.347788 c 0,0.104 -0.14,0.159 -0.229,0.09 z m 13.487,-31.44 h 4.126 c 0.09503,-0.0013 0.183221,0.04927 0.23,0.132 l 5.325,9.783 c 0.095,0.175 0.365,0.175 0.46,-0.002 l 5.275,-9.78 c 0.04668,-0.08296 0.134816,-0.133925 0.23,-0.133 h 4.1 c 0.142,0 0.258,0.108 0.258,0.24 v 16.351 c 0,0.134 -0.116,0.24 -0.258,0.24 h -3.149 c -0.143,0 -0.258,-0.106 -0.258,-0.24 v -10.105 c 0,-0.254 -0.369,-0.334 -0.49,-0.107 l -4.575,8.612 c -0.04692,0.08382 -0.135949,0.13524 -0.232,0.134 h -2.312 c -0.09581,0.0013 -0.184574,-0.05018 -0.231,-0.134 l -4.602,-8.617 c -0.122,-0.227 -0.49,-0.146 -0.49,0.108 v 10.108 c 0,0.134 -0.115,0.24 -0.258,0.24 h -3.149 c -0.143,0 -0.258,-0.106 -0.258,-0.24 v -16.35 c 0,-0.133 0.115,-0.241 0.258,-0.241 m 33.164,9.306 c 0.151,0 0.272,-0.122 0.257,-0.262 -0.08,-0.73 -0.365,-1.323 -0.858,-1.782 -0.55,-0.513 -1.282,-0.77 -2.194,-0.77 -0.86,0 -1.579,0.253 -2.155,0.757 -0.51,0.447 -0.855,1.036 -1.035,1.765 -0.037,0.149 0.088,0.292 0.252,0.292 z m 2.277,-3.728 c 1.162,1.203 1.742,2.878 1.742,5.026 0,0.26 -0.004,0.48 -0.012,0.66 -0.005,0.13 -0.12,0.23 -0.257,0.23 h -9.375 c -0.178,0 -0.3,0.163 -0.243,0.32 0.222378,0.640472 0.637761,1.196296 1.189,1.591 0.636,0.457 1.402,0.685 2.297,0.685 0.654,0 1.281,-0.116 1.884,-0.348 0.527855,-0.203379 1.017193,-0.495223 1.447,-0.863 0.104431,-0.08692 0.257082,-0.08307 0.357,0.009 l 1.74,1.64 c 0.09776,0.09032 0.09868,0.244519 0.002,0.336 -0.687937,0.664348 -1.503338,1.182435 -2.397,1.523 -1.007,0.393 -2.13,0.589 -3.368,0.589 -1.463,0 -2.741,-0.273 -3.834,-0.817 -1.092,-0.545 -1.935,-1.315 -2.53,-2.308 -0.593,-0.995 -0.89,-2.14 -0.89,-3.44 0,-1.314 0.301,-2.472 0.904,-3.474 0.602,-1.001 1.445,-1.779 2.53,-2.332 1.083,-0.553 2.322,-0.83 3.716,-0.83 2.237,0 3.937,0.601 5.098,1.803 z m 10.435,-1.177 c 0.705,-0.38 1.517,-0.593 2.437,-0.64 0.148,-0.008 0.273,0.102 0.273,0.24 v 2.978 c 0,0.136 -0.121,0.246 -0.267,0.24 -0.11729,-0.004 -0.23465,-0.0056 -0.352,-0.005 -1.222,0 -2.19,0.308 -2.904,0.926 -0.714,0.617 -1.071,1.438 -1.071,2.464 v 5.987 c 0,0.133 -0.116,0.24 -0.258,0.24 h -3.46 c -0.142,0 -0.257,-0.107 -0.257,-0.24 v -12.454 c 0,-0.133 0.115,-0.24 0.258,-0.24 h 3.459 c 0.142,0 0.258,0.107 0.258,0.24 v 1.289 c 0,0.23 0.312,0.328 0.463,0.145 0.4,-0.486 0.874,-0.875 1.42,-1.17 z m 11.532,2.524 c -0.998,0 -1.811,0.317 -2.44,0.95 -0.628,0.634 -0.942,1.471 -0.942,2.513 0,1.042 0.31,1.887 0.93,2.536 0.619,0.65 1.41,0.974 2.374,0.974 1.352,0 2.38,-0.441 3.085,-1.325 0.0866,-0.104463 0.23726,-0.128433 0.352,-0.056 l 2.32,1.467 c 0.11514,0.06947 0.14729,0.22196 0.07,0.332 -0.574,0.817 -1.35,1.455 -2.33,1.915 -1.057,0.497 -2.292,0.745 -3.703,0.745 -1.394,0 -2.624,-0.273 -3.691,-0.817 -1.068,-0.546 -1.897,-1.315 -2.491,-2.309 -0.594,-0.993 -0.89,-2.14 -0.89,-3.438 0,-1.314 0.296,-2.473 0.89,-3.475 0.594,-1.002 1.428,-1.78 2.504,-2.332 1.075,-0.553 2.318,-0.83 3.73,-0.83 1.324,0 2.503,0.237 3.535,0.71 0.952,0.436 1.728,1.038 2.33,1.808 0.0853,0.107416 0.0583,0.26518 -0.058,0.338 l -2.285,1.535 c -1.10371,-0.405606 -2.1934,-1.226812 -3.29,-1.241 z m 15.914,6.877 c 0.592,-0.363 0.952,-0.819 1.078,-1.368 0.004,-0.01769 0.006,-0.03582 0.006,-0.054 v -0.886 c 0,-0.133 -0.116,-0.24 -0.258,-0.24 h -2.865 c -0.775,0 -1.347,0.116 -1.717,0.348 -0.37,0.233 -0.554,0.605 -0.554,1.118 0,0.497 0.193,0.894 0.58,1.19 0.387,0.297 0.916,0.445 1.588,0.445 0.826,0 1.54,-0.184 2.142,-0.553 m 1.11,2.79 v -0.66 c 0,-0.208 -0.268,-0.321 -0.432,-0.18 -0.40788,0.348962 -0.87308,0.624697 -1.375,0.815 -0.74,0.289 -1.592,0.433 -2.555,0.433 -1.463,0 -2.624,-0.372 -3.485,-1.118 -0.86,-0.746 -1.29,-1.72 -1.29,-2.922 0,-1.218 0.46,-2.167 1.38,-2.849 0.92,-0.681 2.224,-1.03 3.91,-1.046 h 3.563 c 0.142,0 0.258,-0.107 0.258,-0.24 0,-0.69 -0.245,-1.222 -0.736,-1.6 -0.49,-0.376 -1.209,-0.564 -2.155,-0.564 -1.22,0 -2.517,0.336 -3.89,1.01 -0.12959,0.06493 -0.28731,0.0137 -0.354,-0.115 l -1.022,-2.102 c -0.0563,-0.120588 -8.5e-4,-0.2638 0.122,-0.315 0.92494,-0.427773 1.88648,-0.771491 2.873,-1.027 0.963,-0.24 2.021,-0.36 3.175,-0.36 1.858,0 3.299,0.408 4.323,1.226 1.023,0.817 1.544,1.955 1.562,3.414 l 0.025,8.199 c 0,0.133 -0.116,0.24 -0.258,0.24 h -3.38 c -0.144,0 -0.259,-0.107 -0.259,-0.24 z m 19.81,-11.494 c 0.92,0.897 1.381,2.1 1.381,3.606 v 7.888 c 0,0.132 -0.115,0.24 -0.258,0.24 h -3.459 c -0.142,0 -0.258,-0.108 -0.258,-0.24 v -6.806 c 0,-0.817 -0.245,-1.462 -0.735,-1.935 -0.491,-0.473 -1.158,-0.71 -2,-0.71 -0.982,0.017 -1.756,0.333 -2.324,0.95 -0.568,0.618 -0.852,1.407 -0.852,2.369 v 6.132 c 0,0.132 -0.116,0.24 -0.258,0.24 h -3.459 c -0.142,0 -0.258,-0.108 -0.258,-0.24 v -12.455 c 0,-0.133 0.116,-0.241 0.258,-0.241 h 3.46 c 0.141,0 0.257,0.108 0.257,0.24 v 1.237 c 0,0.228 0.309,0.326 0.461,0.147 0.981,-1.15 2.428,-1.74 4.34,-1.768 1.549,0 2.784,0.45 3.704,1.347 z m 13.808,10.832 c 0.0321,0.10837 -0.0186,0.224088 -0.12,0.274 -0.48935,0.250524 -1.00707,0.441229 -1.542,0.568 -0.62096,0.15148 -1.25783,0.228026 -1.897,0.228 -1.29,0 -2.34,-0.345 -3.149,-1.034 -0.81,-0.69 -1.213,-1.675 -1.213,-2.958 v -5.746 c 0,-0.133 -0.116,-0.241 -0.258,-0.241 h -1.42 c -0.143,0 -0.258,-0.107 -0.258,-0.24 v -2.068 c 0,-0.133 0.115,-0.24 0.258,-0.24 h 1.42 c 0.142,0 0.258,-0.108 0.258,-0.241 v -3.077 c 0,-0.133 0.115,-0.241 0.258,-0.241 h 3.433 c 0.142,0 0.258,0.108 0.258,0.24 v 3.078 c 0,0.133 0.115,0.241 0.258,0.241 h 3.252 c 0.143,0 0.259,0.107 0.259,0.24 v 2.092 c 0,0.132 -0.116,0.24 -0.259,0.24 h -3.252 c -0.143,0 -0.258,0.108 -0.258,0.241 v 5.097 c 0,0.995 0.422,1.49 1.265,1.49 0.509,0 1.064,-0.12 1.664,-0.363 0.145,-0.059 0.311,0.013 0.354,0.153 z m 11.62,-6.624 c 0.151,0 0.272,-0.122 0.257,-0.262 -0.08,-0.73 -0.365,-1.323 -0.858,-1.782 -0.55,-0.513 -1.282,-0.77 -2.194,-0.77 -0.86,0 -1.579,0.253 -2.155,0.757 -0.51,0.447 -0.855,1.036 -1.035,1.765 -0.037,0.149 0.088,0.292 0.252,0.292 z m 2.277,-3.728 c 1.162,1.203 1.742,2.878 1.742,5.026 0,0.26 -0.004,0.48 -0.012,0.66 -0.005,0.13 -0.12,0.23 -0.257,0.23 h -9.375 c -0.178,0 -0.3,0.163 -0.243,0.32 0.22238,0.640472 0.63776,1.196296 1.189,1.591 0.636,0.457 1.402,0.685 2.297,0.685 0.654,0 1.281,-0.116 1.884,-0.348 0.5278,-0.203502 1.01711,-0.495334 1.447,-0.863 0.10443,-0.08692 0.25708,-0.08307 0.357,0.009 l 1.74,1.64 c 0.0978,0.09032 0.0987,0.244519 0.002,0.336 -0.68794,0.664348 -1.50334,1.182435 -2.397,1.523 -1.007,0.393 -2.13,0.589 -3.368,0.589 -1.463,0 -2.741,-0.273 -3.834,-0.817 -1.092,-0.545 -1.935,-1.315 -2.53,-2.308 -0.593,-0.995 -0.89,-2.14 -0.89,-3.44 0,-1.314 0.301,-2.472 0.904,-3.474 0.602,-1.001 1.445,-1.779 2.53,-2.332 1.083,-0.553 2.322,-0.83 3.716,-0.83 2.237,0 3.937,0.601 5.098,1.803 z m 11.003,1.347 c -0.998,0 -1.811,0.317 -2.44,0.95 -0.628,0.634 -0.942,1.471 -0.942,2.513 0,1.042 0.31,1.887 0.93,2.536 0.619,0.65 1.41,0.974 2.374,0.974 1.352,0 2.38,-0.441 3.085,-1.325 0.0866,-0.104463 0.23726,-0.128433 0.352,-0.056 l 2.32,1.467 c 0.11514,0.06947 0.14729,0.22196 0.07,0.332 -0.574,0.817 -1.35,1.455 -2.33,1.915 -1.057,0.497 -2.292,0.745 -3.703,0.745 -1.394,0 -2.624,-0.273 -3.691,-0.817 -1.068,-0.546 -1.897,-1.315 -2.491,-2.309 -0.594,-0.993 -0.89,-2.14 -0.89,-3.438 0,-1.314 0.296,-2.473 0.89,-3.475 0.594,-1.002 1.428,-1.78 2.504,-2.332 1.075,-0.553 2.318,-0.83 3.73,-0.83 1.324,0 2.503,0.237 3.535,0.71 0.952,0.436 1.728,1.038 2.33,1.808 0.0853,0.107416 0.0583,0.26518 -0.058,0.338 l -2.285,1.535 c -0.10787,0.07236 -0.25197,0.05765 -0.343,-0.035 -0.771,-0.804 -1.753,-1.206 -2.947,-1.206 z"
     fill="#0c0c0c"
     fill-rule="evenodd"
     id="path4"
     sodipodi:nodetypes="csscccscccsscccccccccsccsscccsscccsccccccsccsscccccccccsssssssccccccsssssscsccsccsscscssccsccccccsccsccscccsscccsssssssssscccccscscccccsccsscsccccccccssscscsccsccscsccsscscccccscccsscccsssssscccsssssssssscccccccccssssssssssssssssssssssscccsccsccsssscssccsccccccsccsccssscscscccccsccsscscccccs" />
</svg>
